<?xml version="1.0" encoding="utf-8"?>
<!-- Generator: Adobe Illustrator 16.0.0, SVG Export Plug-In . SVG Version: 6.00 Build 0)  -->
<!DOCTYPE svg PUBLIC "-//W3C//DTD SVG 1.1//EN" "http://www.w3.org/Graphics/SVG/1.1/DTD/svg11.dtd">
<svg version="1.1" id="Layer_1" xmlns="http://www.w3.org/2000/svg" xmlns:xlink="http://www.w3.org/1999/xlink" x="0px" y="0px"
	 width="100px" height="100px" viewBox="0 0 100 100" enable-background="new 0 0 100 100" xml:space="preserve">
<g>
	<path d="M92.698,15.527c-0.262-0.396-0.764-0.554-1.207-0.376c-0.44,0.177-0.696,0.64-0.61,1.107
		c0.582,3.196,0.049,5.841-1.584,7.859c-3.357,4.148-10.332,4.558-10.951,4.586c-3.446-5.786-9.731-9.544-16.866-9.544
		c-8.466,0-13.908,2.864-17.396,9.206c-1.67-0.225-7.83-1.297-10.623-5.15c-1.359-1.875-1.73-4.201-1.102-6.911
		c0.112-0.485-0.149-0.979-0.613-1.158c-0.465-0.18-0.99,0.011-1.233,0.443c-0.286,0.51-6.958,12.592-2.541,20.801
		c0.782,1.453,1.873,2.673,3.235,3.683H21.181c-3.734,0-7.09,1.618-9.433,4.176c-0.243-0.047-0.503-0.008-0.727,0.137
		c-0.37,0.238-9.057,6.039-9.057,23.869c0,0.552,0.448,1,1,1c0.552,0,1-0.448,1-1c0-9.414,2.577-15.257,4.832-18.57
		c-0.264,1.024-0.419,2.09-0.419,3.194v26.379c0,0.552,0.448,1,1,1h3.903c0.474,2.646,2.789,4.664,5.57,4.664h3.634
		c2.781,0,5.095-2.018,5.57-4.664h16.2c0.474,2.646,2.788,4.664,5.57,4.664h3.635c2.781,0,5.096-2.018,5.57-4.664h4.855
		c0.552,0,1-0.448,1-1v-5.352c8.367-0.797,14.879-6.129,15.063-12.625c0.003-0.033,0.021-0.063,0.021-0.096
		c0-0.017-0.01-0.029-0.01-0.047s0.002-0.033,0.002-0.051c0-0.003,0.002-0.006,0.004-0.012l1.059-12.977
		c0.281,0.037,0.566-0.035,0.781-0.221c0.125-0.107,0.213-0.242,0.271-0.391c1.144,1.445,2.87,2.777,5.39,2.777l0,0
		c1.502,0,3.125-0.498,4.828-1.479c0.416-0.24,0.604-0.744,0.442-1.198c-0.062-0.174-1.388-3.704-6.556-4.761
		c5.563-1.438,9.218-4.041,10.871-7.775C100.59,27.057,93.518,16.683,92.698,15.527z M29.733,35.446
		c-2.38-4.418-0.94-10.433,0.559-14.476c0.276,1.236,0.793,2.379,1.551,3.424c2.839,3.91,8.283,5.324,10.953,5.798
		c-1.373,3.083-1.859,8.696-2.009,11.104c-1.711-0.18-3.225-0.506-4.584-0.946c-0.179-0.17-0.418-0.278-0.685-0.278h-0.162
		C32.733,39.064,30.851,37.519,29.733,35.446z M18.849,82.921c-1.671,0-3.069-1.131-3.508-2.664h7.015
		C21.918,81.789,20.521,82.921,18.849,82.921z M23.229,82.844c0.601-0.732,1.017-1.617,1.191-2.587h1.572
		C25.619,81.555,24.563,82.566,23.229,82.844z M49.823,82.921c-1.671,0-3.069-1.131-3.507-2.664h7.016
		C52.893,81.789,51.494,82.921,49.823,82.921z M54.202,82.844c0.601-0.732,1.017-1.617,1.191-2.587h1.571
		C56.594,81.555,55.537,82.566,54.202,82.844z M62.883,78.257H10.376V52.878c0-5.958,4.847-10.806,10.805-10.806H35
		c0.55,0.196,1.13,0.371,1.731,0.525c-5.538,1.268-6.49,4.539-6.534,4.705c-0.12,0.456,0.095,0.934,0.515,1.146
		c1.99,1.011,3.762,1.521,5.266,1.521c1.51,0,2.767-0.498,3.733-1.479c1.079-1.097,1.553-2.58,1.762-3.715
		c0.451,0.51,1.224,1.344,2.26,2.301c0.051,0.047,0.106,0.095,0.158,0.142c-0.01,0.078-0.029,0.153-0.02,0.235L45.474,61.3
		c0.002,0.021,0.014,0.036,0.017,0.056c0.256,7.014,7.875,12.663,17.226,12.663c0.058,0,0.11-0.006,0.166-0.006V78.257
		L62.883,78.257z M39.547,44.178c-0.132,0.873-0.459,2.101-1.267,2.916c-1.17,1.183-3.11,1.162-5.745,0.006
		C33.241,46.156,35.078,44.556,39.547,44.178z M51.523,66.551c-0.548-0.064-0.94-0.563-0.875-1.111
		c0.063-0.548,0.562-0.935,1.11-0.875l6.777,0.803c0.05,0.007,0.089,0.031,0.134,0.043c0.065,0.019,0.129,0.033,0.188,0.063
		s0.106,0.068,0.159,0.105c0.051,0.039,0.1,0.076,0.142,0.123c0.043,0.05,0.074,0.104,0.107,0.158
		c0.03,0.056,0.063,0.106,0.086,0.168c0.022,0.063,0.028,0.129,0.04,0.196c0.007,0.047,0.027,0.088,0.027,0.136v1.896
		c0,0.552-0.449,1-1,1c-0.553,0-1-0.448-1-1V67.25L51.523,66.551z M73.185,66.55l-5.751,0.694v1.009c0,0.552-0.448,1-1,1
		c-0.553,0-1-0.448-1-1v-1.896c0-0.049,0.021-0.091,0.027-0.137c0.01-0.066,0.018-0.132,0.039-0.193
		c0.021-0.063,0.055-0.113,0.086-0.168c0.032-0.057,0.063-0.109,0.105-0.158c0.043-0.047,0.092-0.084,0.145-0.123
		c0.051-0.039,0.099-0.077,0.155-0.106c0.062-0.03,0.124-0.045,0.188-0.063c0.047-0.012,0.086-0.037,0.133-0.043l6.631-0.801
		c0.555-0.065,1.047,0.324,1.111,0.872C74.123,65.986,73.733,66.484,73.185,66.55z M78.029,60.185H47.357l-1.291-11.152
		c2.93,2.227,6.736,4.247,10.909,4.247c0.413,0,0.831-0.021,1.25-0.063c0.3-0.03,0.569-0.193,0.735-0.446
		c0.166-0.252,0.209-0.565,0.119-0.853l-0.414-1.299c1.832,0.559,4.776,1.252,8.084,1.252c3.09,0,5.881-0.61,8.293-1.817
		c0.432-0.216,0.646-0.71,0.512-1.174l-0.563-1.928l4.055,0.779L78.029,60.185z M90.428,47.51c-1.063,0.503-2.059,0.757-2.963,0.757
		l0,0c-2.655,0-4.176-2.281-4.875-3.736c0.17-0.004,0.336-0.006,0.5-0.006C87.66,44.523,89.657,46.419,90.428,47.51z M95.223,34.242
		c-1.713,3.869-6.139,6.348-13.161,7.375c-0.257-2.823-0.875-8.189-2.072-11.056c2.649-0.338,7.841-1.463,10.856-5.179
		c1.259-1.552,1.996-3.375,2.205-5.446C94.993,23.572,97.325,29.491,95.223,34.242z"/>
</g>
</svg>
