<svg version="1.1" id="svg-draw" xmlns="http://www.w3.org/2000/svg" xmlns:xlink="http://www.w3.org/1999/xlink" x="0px" y="0px" width="100%" height="100%" xml:space="preserve">
	<g id="svg-content">
		<g id="svg-logo" class="svg-element">
<radialGradient id="SVGID_1_" cx="-1857.7059" cy="75.8312" r="1.614" gradientTransform="matrix(57.2808 0 0 -57.2808 106482.1797 4460.0586)" gradientUnits="userSpaceOnUse">
	<stop  offset="0" style="stop-color:#3F3F3F"/>
	<stop  offset="0.4786" style="stop-color:#232323"/>
	<stop  offset="1" style="stop-color:#000000"/>
</radialGradient>
<path fill="url(#SVGID_1_)" d="M172,79.3c-2.5,0-6.9-2.5-10.9-6.5c-5.1-5.1-7.8-10.7-6-12.5c0.4-0.4,0.9-0.6,1.6-0.6
	c2.5,0,6.9,2.5,10.9,6.5c5.1,5.1,7.8,10.6,6,12.5C173.2,79.1,172.7,79.3,172,79.3 M78.4,8C78.3,8,78.3,8,78.4,8
	C63.6,9.5,59.6,26.6,62.6,32.4c0,0-15,9.4-15.3,20.2C46.9,68.7,61.8,76.5,63,80.2c0.4,1.3-0.7,10.8-5.1,20.4
	c-8.6,18.7-24.9,46.6-24.6,69.6c0.2,19.1,16,22.5,18.1,23.1c6.6,1.7,18.2,3.1,29.6,3.1c5.5,0,11-0.3,15.7-1.1
	c4.4-0.7,22.6-6,30.4-35.7c3.1-11.6-1.8-30.8,0-48.8c1.6-16.9,15-26.4,26.5-26.4c0.4,0,0.7,0,1.1,0c11.1,0.6,17.8,12.8,18.2,12.8
	c0,0,0,0,0,0c16.2-23-8.8-43-26.5-43c-2.2,0-4.3,0.3-6.2,1c-9.2,3.2-19.9,11.4-26.3,26.3c-11.5,26.8,5.9,43.3,2.1,66.6
	c-3.5,21.2-15.9,31.2-18.9,33.5c2-2.1,7-10.7,3.6-27.1c-3-14.5-16.1-33.5-18.7-49.7c-1.9-12.2-2.3-18.9-1.1-18.9c0,0,0,0,0,0
	c0.5,0,1.2,0.1,2.3,0.1c5.4,0,17.5-1.3,24.3-10.9c5.9-8.5,0-22.4,0.4-22.5c16.6-2.6,14-18.7,14-18.7s-13.1,5.3-16.1,5.3
	c-0.3,0-0.5-0.1-0.6-0.2c-0.3-0.5-3.3-3.8-5.9-4.8c-0.1,0,0.4-0.4,1.4-0.4c0.4,0,0.9,0.1,1.3,0.2c0.4,0.1,0.7,0.1,0.8,0.1
	c0,0,0,0,0,0c-0.2-1.5-1.9-1.7-3.3-1.7c-0.3,0-0.5,0-0.7,0c-0.2,0-0.5,0-0.6,0c-0.2,0-0.4,0-0.4-0.1c-1-0.7,4.1-0.8,4-1
	c-0.6-1.6-1.8-2.1-3.1-2.1c-0.9,0-1.8,0.2-2.5,0.4c-0.7,0.2-1.2,0.4-1.4,0.4c0,0,0,0,0,0c0-1.9,4.4-1.9,4.4-2c-0.9-1.5-2.5-2-4.3-2
	c-2.8,0-6.3,1.2-8.6,1.5c-0.1,0-0.2,0-0.2,0c-1.5,0-4.3-1.2-4.3-1.7C81.7,23.5,81.1,8,78.4,8"/>
 </g>
		<g id="svg-name" class="svg-element"></g>
		<g id="svg-slogan" class="svg-element"></g>
		<g id="svg-atext" class="svg-element"></g>
	</g>
</svg>