<?xml version="1.0" standalone="no"?>
<!DOCTYPE svg PUBLIC "-//W3C//DTD SVG 1.1//EN" 
"http://www.w3.org/Graphics/SVG/1.1/DTD/svg11.dtd">

<svg width="100%" height="100%" version="1.1" preserveAspectRatio="xMidYMid meet" viewBox="0 0 200 200"
xmlns="http://www.w3.org/2000/svg">
		<path id="XMLID_137_" fill-rule="evenodd" clip-rule="evenodd" fill="#F56076" d="M91.3,198.3c0,0,6.5-4-5.1-29.7
			c-12.3-27.3-14.9-73.9,24.3-89.6c37-14.8,66.6,36.6,47.4,60.6c-16.7,20.8-32.4,3.8-42.5,5.9c-1.9,0.4-2,5.4,0,7.9
			s41.5,23.7,60.2-16.1c6.1-13,6.7-30.9,0.7-45.9c-11.6-29-43.1-52-75.2-41.4C59.3,63.9,47,94.2,46.9,125.3
			C46.8,156.4,72.1,210.2,91.3,198.3z"/>
		<circle id="XMLID_136_" fill-rule="evenodd" clip-rule="evenodd" fill="#F56076" cx="127.1" cy="115.7" r="16.5"/>
		<circle id="XMLID_135_" fill-rule="evenodd" clip-rule="evenodd" fill="#F56076" cx="110.6" cy="19.2" r="19.2"/>
		<path id="XMLID_134_" fill-rule="evenodd" clip-rule="evenodd" fill="#F56076" d="M76.6,33c3.2,9.7-1.6,20-10.8,23.1
			c-9.2,3-19.2-2.4-22.4-12.1c-3.2-9.7,1.6-20,10.8-23.1C63.4,17.9,73.4,23.3,76.6,33z"/>
		<path id="XMLID_133_" fill-rule="evenodd" clip-rule="evenodd" fill="#F56076" d="M41.1,65.9c6.2,4.6,7.6,13.1,3.2,19
			c-4.4,5.8-13,6.8-19.1,2.2c-6.2-4.6-7.6-13.1-3.2-19C26.3,62.3,34.9,61.3,41.1,65.9z"/>
		<path id="XMLID_132_" fill-rule="evenodd" clip-rule="evenodd" fill="#F56076" d="M170,39.4c-3.2,7-11.2,10.3-17.8,7.3
			c-6.7-3-9.5-11.2-6.3-18.2c3.2-7,11.2-10.3,17.8-7.3C170.4,24.2,173.2,32.4,170,39.4z"/>
	
</svg>

